<svg width="14" height="14" viewBox="0 0 14 14" fill="none" xmlns="http://www.w3.org/2000/svg">
<path d="M14 2.99997C14 2.46952 13.7893 1.9608 13.4142 1.58574C13.0391 1.21065 12.5304 0.999934 12 0.999934H11.5V0.514009C11.5 0.24496 11.2931 0.0140071 11.0241 0.000584451C10.9565 -0.00268937 10.8889 0.00781662 10.8255 0.0314477C10.762 0.0550787 10.7041 0.0913289 10.655 0.138025C10.6061 0.184692 10.5671 0.240853 10.5404 0.303086C10.5138 0.365288 10.5 0.432253 10.5 0.499962V0.999934H3.49998V0.514009C3.49998 0.24496 3.29311 0.0140071 3.02406 0.000584451C2.95647 -0.00268937 2.88891 0.00781662 2.82549 0.0314477C2.76204 0.0550787 2.70406 0.0913289 2.65507 0.138025C2.60608 0.184692 2.56706 0.240853 2.5404 0.303086C2.51373 0.365288 2.50001 0.432253 2.50001 0.499962V0.999934H2.00001C1.46956 0.999934 0.960867 1.21065 0.585776 1.58574C0.210715 1.9608 0 2.46952 0 2.99997V3.37497C0 3.4081 0.0131548 3.43988 0.0366073 3.46334C0.0600598 3.48676 0.0918456 3.49997 0.125001 3.49997H13.875C13.9082 3.49997 13.9399 3.48676 13.9634 3.46334C13.9868 3.43988 14 3.4081 14 3.37497V2.99997Z" fill="#559A2D"/>
<path d="M0 12C0 12.5305 0.210715 13.0392 0.585776 13.4143C0.960867 13.7893 1.46956 14 2.00001 14H12C12.5304 14 13.0391 13.7893 13.4142 13.4143C13.7893 13.0392 14 12.5305 14 12V4.59381C14 4.5689 13.9901 4.54506 13.9725 4.5275C13.955 4.50991 13.9311 4.50003 13.9063 4.50003H0.0937504C0.0688991 4.50003 0.0450299 4.50991 0.0274703 4.5275C0.00988099 4.54506 0 4.5689 0 4.59381V12ZM10.75 5.50006C10.8983 5.50006 11.0434 5.54405 11.1667 5.62646C11.29 5.70884 11.3862 5.82599 11.4429 5.96307C11.4997 6.1001 11.5145 6.2509 11.4856 6.39638C11.4567 6.54185 11.3852 6.67549 11.2803 6.7804C11.1754 6.88528 11.0418 6.95671 10.8963 6.98564C10.7508 7.01456 10.6 6.99974 10.463 6.94293C10.326 6.8862 10.2088 6.79004 10.1264 6.66674C10.044 6.5434 10 6.3984 10 6.25007C10 6.05114 10.0791 5.86036 10.2197 5.71968C10.3603 5.57908 10.5511 5.50006 10.75 5.50006ZM10.75 8.00004C10.8983 8.00004 11.0434 8.04406 11.1667 8.12644C11.29 8.20886 11.3862 8.326 11.4429 8.46305C11.4997 8.60011 11.5145 8.75091 11.4856 8.89636C11.4567 9.04186 11.3852 9.17547 11.2803 9.28041C11.1754 9.38529 11.0418 9.45672 10.8963 9.48565C10.7508 9.51458 10.6 9.49975 10.463 9.44294C10.326 9.38621 10.2088 9.29005 10.1264 9.16675C10.044 9.04341 10 8.89841 10 8.75008C10 8.55112 10.0791 8.36037 10.2197 8.21969C10.3603 8.07909 10.5511 8.00004 10.75 8.00004ZM8.25 5.50006C8.39837 5.50006 8.54337 5.54405 8.6667 5.62646C8.79001 5.70884 8.88617 5.82599 8.94289 5.96307C8.99971 6.1001 9.01453 6.2509 8.9856 6.39638C8.95667 6.54185 8.88525 6.67549 8.78033 6.7804C8.67542 6.88528 8.54182 6.95671 8.39631 6.98564C8.25087 7.01456 8.10003 6.99974 7.96298 6.94293C7.82595 6.8862 7.70881 6.79004 7.62643 6.66674C7.54402 6.5434 7.5 6.3984 7.5 6.25007C7.5 6.05114 7.57905 5.86036 7.71965 5.71968C7.86033 5.57908 8.05111 5.50006 8.25 5.50006ZM8.25 8.00004C8.39837 8.00004 8.54337 8.04406 8.6667 8.12644C8.79001 8.20886 8.88617 8.326 8.94289 8.46305C8.99971 8.60011 9.01453 8.75091 8.9856 8.89636C8.95667 9.04186 8.88525 9.17547 8.78033 9.28041C8.67542 9.38529 8.54182 9.45672 8.39631 9.48565C8.25087 9.51458 8.10003 9.49975 7.96298 9.44294C7.82595 9.38621 7.70881 9.29005 7.62643 9.16675C7.54402 9.04341 7.5 8.89841 7.5 8.75008C7.5 8.55112 7.57905 8.36037 7.71965 8.21969C7.86033 8.07909 8.05111 8.00004 8.25 8.00004ZM8.25 10.5001C8.39837 10.5001 8.54337 10.544 8.6667 10.6265C8.79001 10.7089 8.88617 10.826 8.94289 10.9631C8.99971 11.1001 9.01453 11.2509 8.9856 11.3964C8.95667 11.5419 8.88525 11.6755 8.78033 11.7804C8.67542 11.8853 8.54182 11.9567 8.39631 11.9857C8.25087 12.0146 8.10003 11.9997 7.96298 11.9429C7.82595 11.8862 7.70881 11.79 7.62643 11.6667C7.54402 11.5434 7.5 11.3984 7.5 11.2501C7.5 11.0511 7.57905 10.8604 7.71965 10.7197C7.86033 10.5791 8.05111 10.5001 8.25 10.5001ZM5.74999 8.00004C5.89836 8.00004 6.04336 8.04406 6.16669 8.12644C6.29 8.20886 6.38616 8.326 6.44291 8.46305C6.4997 8.60011 6.51452 8.75091 6.48559 8.89636C6.45666 9.04186 6.38523 9.17547 6.28032 9.28041C6.17544 9.38529 6.04184 9.45672 5.89633 9.48565C5.75086 9.51458 5.60002 9.49975 5.463 9.44294C5.32594 9.38621 5.20883 9.29005 5.12642 9.16675C5.04401 9.04341 5.00002 8.89841 5.00002 8.75008C5.00002 8.55112 5.07904 8.36037 5.21966 8.21969C5.36032 8.07909 5.55109 8.00004 5.74999 8.00004ZM5.74999 10.5001C5.89836 10.5001 6.04336 10.544 6.16669 10.6265C6.29 10.7089 6.38616 10.826 6.44291 10.9631C6.4997 11.1001 6.51452 11.2509 6.48559 11.3964C6.45666 11.5419 6.38523 11.6755 6.28032 11.7804C6.17544 11.8853 6.04184 11.9567 5.89633 11.9857C5.75086 12.0146 5.60002 11.9997 5.463 11.9429C5.32594 11.8862 5.20883 11.79 5.12642 11.6667C5.04401 11.5434 5.00002 11.3984 5.00002 11.2501C5.00002 11.0511 5.07904 10.8604 5.21966 10.7197C5.36032 10.5791 5.55109 10.5001 5.74999 10.5001ZM3.24998 8.00004C3.39835 8.00004 3.54335 8.04406 3.66668 8.12644C3.78999 8.20886 3.88618 8.326 3.9429 8.46305C3.99969 8.60011 4.01454 8.75091 3.98561 8.89636C3.95665 9.04186 3.88522 9.17547 3.78034 9.28041C3.67543 9.38529 3.54183 9.45672 3.39632 9.48565C3.25085 9.51458 3.10001 9.49975 2.96302 9.44294C2.82596 9.38621 2.70882 9.29005 2.62641 9.16675C2.544 9.04341 2.50001 8.89841 2.50001 8.75008C2.50001 8.55112 2.57906 8.36037 2.71965 8.21969C2.86031 8.07909 3.05108 8.00004 3.24998 8.00004ZM3.24998 10.5001C3.39835 10.5001 3.54335 10.544 3.66668 10.6265C3.78999 10.7089 3.88618 10.826 3.9429 10.9631C3.99969 11.1001 4.01454 11.2509 3.98561 11.3964C3.95665 11.5419 3.88522 11.6755 3.78034 11.7804C3.67543 11.8853 3.54183 11.9567 3.39632 11.9857C3.25085 12.0146 3.10001 11.9997 2.96302 11.9429C2.82596 11.8862 2.70882 11.79 2.62641 11.6667C2.544 11.5434 2.50001 11.3984 2.50001 11.2501C2.50001 11.0511 2.57906 10.8604 2.71965 10.7197C2.86031 10.5791 3.05108 10.5001 3.24998 10.5001Z" fill="#559A2D"/>
</svg>
