<svg width="13" height="13" viewBox="0 0 13 13" fill="none" xmlns="http://www.w3.org/2000/svg">
<path d="M6.49997 0C2.9103 0 0 2.9103 0 6.49997C0 10.0897 2.9103 13 6.49997 13C10.0896 13 13 10.0897 13 6.49997C13 2.9103 10.0897 0 6.49997 0ZM9.49998 7.49998H6.49997C6.36737 7.49998 6.24022 7.44728 6.14642 7.35357C6.05268 7.2598 5.99998 7.13259 5.99998 6.99999V2.50001C5.99998 2.36739 6.05268 2.24023 6.14642 2.14644C6.24022 2.0527 6.36737 1.99999 6.49997 1.99999C6.6326 1.99999 6.75978 2.0527 6.85355 2.14644C6.94729 2.24023 6.99999 2.36739 6.99999 2.50001V6.49997H9.49998C9.63258 6.49997 9.75976 6.55267 9.85355 6.64642C9.94729 6.74021 10 6.86739 10 6.99999C10 7.13259 9.94729 7.2598 9.85355 7.35357C9.75976 7.44728 9.63258 7.49998 9.49998 7.49998Z" fill="#559A2D"/>
</svg>
