<svg width="66" height="42" viewBox="0 0 66 42" fill="none" xmlns="http://www.w3.org/2000/svg">
<path d="M0.151883 32.424C-0.0463385 32.2317 -0.0511741 31.9152 0.141083 31.717C0.33334 31.5187 0.649885 31.5139 0.848107 31.7062L0.499995 32.0651L0.151883 32.424ZM61.2369 0.138154C61.4367 -0.0524196 61.7532 -0.0449066 61.9438 0.154935L65.0493 3.41153C65.2399 3.61137 65.2324 3.92787 65.0326 4.11844C64.8327 4.30901 64.5162 4.3015 64.3256 4.10166L61.5651 1.20691L58.6704 3.96741C58.4705 4.15799 58.1541 4.15047 57.9635 3.95063C57.7729 3.75079 57.7804 3.4343 57.9803 3.24372L61.2369 0.138154ZM0.499995 32.0651L0.848107 31.7062C20.1821 50.4583 60.1543 39.5707 61.0821 0.488132L61.5819 0.499998L62.0818 0.511864C61.1341 40.4349 20.1345 51.8053 0.151883 32.424L0.499995 32.0651Z" fill="#D3291F"/>
</svg>
